{"title":"Fright.Night.2011.720p.BRRip.x264.Feel-Free","uid":6858895,"size":2727320218,"categoryP":"video","categoryS":"hd___movies","magnet":"?xt=urn:btih:579221291a13d5cb74003c40f0958fedddb6b4d8&amp;dn=Fright.Night.2011.720p.BRRip.x264.Feel-Free&amp;tr=udp%3A%2F%2Ftracker.openbittorrent.com%3A80&amp;tr=udp%3A%2F%2Fopen.demonii.com%3A1337&amp;tr=udp%3A%2F%2Ftracker.coppersurfer.tk%3A6969&amp;tr=udp%3A%2F%2Fexodus.desync.com%3A6969","seeders":3,"leechers":0,"uploader":"Hackulus","files":-1,"time":1322810892,"description":"Genre:Comedy | Horror\nLanguage:English\nIMDb:http://www.imdb.com/title/tt1438176/\nSource:BluRay.X264.AMIABLE Thanks!\n\nFormat : MPEG-4\nFormat profile : Base Media\nCodec ID : isom\nFile size : 2.54 GiB\nDuration : 1h 45mn\nOverall bit rate : 3 426 Kbps\n\nVideo\nID : 1\nFormat : AVC\nFormat/Info : Advanced Video Codec\nFormat profile : &lt;a class=&quot;__cf_email__&quot; href=&quot;/cdn-cgi/l/email-protection&quot; data-cfemail=&quot;3a72535d527a760f140b&quot;&gt;[email&amp;#160;protected]&lt;/a&gt;&lt;script cf-hash='f9e31' type=&quot;text/javascript&quot;&gt;\n/* &lt;![CDATA[ */!function(){try{var t=&quot;currentScript&quot;in document?document.currentScript:function(){for(var t=document.getElementsByTagName(&quot;script&quot;),e=t.length;e--;)if(t[e].getAttribute(&quot;cf-hash&quot;))return t[e]}();if(t&amp;&amp;t.previousSibling){var e,r,n,i,c=t.previousSibling,a=c.getAttribute(&quot;data-cfemail&quot;);if(a){for(e=&quot;&quot;,r=parseInt(a.substr(0,2),16),n=2;a.length-n;n+=2)i=parseInt(a.substr(n,2),16)^r,e+=String.fromCharCode(i);e=document.createTextNode(e),c.parentNode.replaceChild(e,c)}}}catch(u){}}();/* ]]&gt; */&lt;/script&gt;\nFormat settings, CABAC : Yes\nFormat settings, ReFrames : 3 frames\nCodec ID : avc1\nCodec ID/Info : Advanced Video Coding\nDuration : 1h 45mn\nBit rate mode : Variable\nBit rate : 3 000 Kbps\nMaximum bit rate : 17.2 Mbps\nWidth : 1 280 pixels\nHeight : 720 pixels\nDisplay aspect ratio : 16:9\nFrame rate mode : Constant\nFrame rate : 23.976 fps\nColor space : YUV\nChroma subsampling : 4:2:0\nBit depth : 8 bits\nScan type : Progressive\nBits/(Pixel*Frame) : 0.136\nStream size : 2.20 GiB (87%)\nWriting library : x264\n\nAudio\nID : 2\nFormat : AAC\nFormat/Info : Advanced Audio Codec\nFormat version : Version 4\nFormat profile : LC\nFormat settings, SBR : No\nCodec ID : 40\nDuration : 1h 45mn\nBit rate mode : Variable\nBit rate : 444 Kbps\nMaximum bit rate : 564 Kbps\nChannel(s) : 6 channels\nChannel positions : Front: L C R, Side: L R, LFE\nSampling rate : 48.0 KHz\nStream size : 336 MiB (13%)\n &lt;a href=&quot;\nhttp://img710.imageshack.us/img710/4237/vlcsnap00005g.png&quot; rel=&quot;nofollow&quot; target=&quot;_NEW&quot;&gt;\nhttp://img710.imageshack.us/img710/4237/vlcsnap00005g.png&lt;/a&gt; &lt;a href=&quot;\nhttp://img62.imageshack.us/img62/944/vlcsnap00004h.png&quot; rel=&quot;nofollow&quot; target=&quot;_NEW&quot;&gt;\nhttp://img62.imageshack.us/img62/944/vlcsnap00004h.png&lt;/a&gt; &lt;a href=&quot;\nhttp://img402.imageshack.us/img402/2594/vlcsnap00003wk.png&quot; rel=&quot;nofollow&quot; target=&quot;_NEW&quot;&gt;\nhttp://img402.imageshack.us/img402/2594/vlcsnap00003wk.png&lt;/a&gt; &lt;a href=&quot;\nhttp://img406.imageshack.us/img406/5913/vlcsnap00002li.png&quot; rel=&quot;nofollow&quot; target=&quot;_NEW&quot;&gt;\nhttp://img406.imageshack.us/img406/5913/vlcsnap00002li.png&lt;/a&gt; &lt;a href=&quot;\nhttp://img828.imageshack.us/img828/3458/vlcsnap00001jo.png&quot; rel=&quot;nofollow&quot; target=&quot;_NEW&quot;&gt;\nhttp://img828.imageshack.us/img828/3458/vlcsnap00001jo.png&lt;/a&gt;","torrent":{"xt":"urn:btih:579221291a13d5cb74003c40f0958fedddb6b4d8","amp;dn":"Fright.Night.2011.720p.BRRip.x264.Feel-Free","amp;tr":["udp%3A%2F%2Ftracker.openbittorrent.com%3A80","udp%3A%2F%2Fopen.demonii.com%3A1337","udp%3A%2F%2Ftracker.coppersurfer.tk%3A6969","udp%3A%2F%2Fexodus.desync.com%3A6969"],"infoHash":"579221291a13d5cb74003c40f0958fedddb6b4d8","infoHashBuffer":{"type":"Buffer","data":[87,146,33,41,26,19,213,203,116,0,60,64,240,149,143,237,221,182,180,216]},"announce":[],"urlList":[]}}